# xmcd
#
# Track frame offsets: 
#        150
#        12627
#        21170
#        35190
#        45907
#        56407
#        68855
#        82005
#        94470
#        108012
#        119742
#        131667
#        143925
#        156367
#        168777
#        180367
#        193095
#        204967
#        217747
#        229155
#
# Disc length: 3211 seconds
#
# Revision: 2
# Processed by: cddbd v1.5.2PL0 Copyright (c) Steve Scherf et al.
# Submitted via: ExactAudioCopyFreeDBPlugin 1.0
#
DISCID=180c8914
DTITLE=Various Artist - The Excello Story, 1952-1975
DYEAR=1999
DGENRE=Rhythm and Blues
TTITLE0=Arthur Gunter - Baby Let's Play House
TTITLE1=The Boyer Brothers - Step By Step
TTITLE2=Kid King's Combo - Banana Split
TTITLE3=Charlie Dowell Orchestra featuring Willie Lee Patton - Wail Da
TTITLE3=ddy
TTITLE4=Jack Cooley - Dyna Flow
TTITLE5=Del Thorne and Her Trio - Down South in Birmingham
TTITLE6=The Silvertone Singers of Cincinnati - I Got a Home in That Ro
TTITLE6=ck
TTITLE7=The Leap Frogs - Dirty Britches
TTITLE8="Little Maxie" Bailey - Drive, Soldiers, Drive
TTITLE9=Bernie Hardison - Love Me Baby
TTITLE10=The Blue Flamers - Driving Down the Highway
TTITLE11=The Dixie Doodlers - Best of Friends
TTITLE12=Shy Guy Douglas - I'm Your Country Man
TTITLE13=Louis Campbell - Gotta Have You Baby
TTITLE14=Louis Brooks and His Pinetoppers - Bus Station Blues
TTITLE15=Jack Toombs - You're the Only Thing
TTITLE16=Ray Batts - Stealin' Sugar
TTITLE17=The Peacheroos - Be Bop Baby
TTITLE18=The Sons of the South - God is Alright
TTITLE19=The Blues Rockers - Calling All Cows
EXTD=YEAR: 1955
EXTT0=
EXTT1=
EXTT2=
EXTT3=
EXTT4=
EXTT5=
EXTT6=
EXTT7=
EXTT8=
EXTT9=
EXTT10=
EXTT11=
EXTT12=
EXTT13=
EXTT14=
EXTT15=
EXTT16=
EXTT17=
EXTT18=
EXTT19=
PLAYORDER=
